<svg width="27" height="30" viewBox="0 0 27 30" fill="none" xmlns="http://www.w3.org/2000/svg">
<path d="M13.5 0C8.76968 0 4.90909 3.7748 4.90909 8.4V10.8H2.45455C1.09841 10.8 0 11.874 0 13.2V27.6C0 28.926 1.09841 30 2.45455 30H24.5455C25.9016 30 27 28.926 27 27.6V13.2C27 11.874 25.9016 10.8 24.5455 10.8H22.0909V8.4C22.0909 3.9259 18.454 0.322278 13.9363 0.0867187C13.7975 0.0320526 13.6496 0.00266299 13.5 0ZM13.5 2.4C16.904 2.4 19.6364 5.0716 19.6364 8.4V10.8H7.36364V8.4C7.36364 5.0716 10.096 2.4 13.5 2.4Z" fill="#504F40"/>
</svg>
