<svg width="64" height="78" viewBox="0 0 64 78" fill="none" xmlns="http://www.w3.org/2000/svg">
<path fill-rule="evenodd" clip-rule="evenodd" d="M48 54.6H16V31.2C16 20.8026 24 15.6 31.9962 15.6H32.0038C40 15.6 48 20.8026 48 31.2V54.6ZM35.9981 66.3C35.9981 68.4528 34.2061 70.2 32 70.2C29.7901 70.2 27.9981 68.4528 27.9981 66.3V62.4H35.9981V66.3ZM59.9981 54.6C57.792 54.6 56 52.8528 56 50.7V31.2C56 17.3433 46.528 9.6525 35.9981 8.1081V3.9C35.9981 1.7472 34.2061 0 32 0C29.7901 0 27.9981 1.7472 27.9981 3.9V8.1081C17.472 9.6525 8 17.3433 8 31.2V50.7C8 52.8528 6.208 54.6 3.99812 54.6C1.792 54.6 0 56.3472 0 58.5C0 60.6528 1.792 62.4 4.00188 62.4H20.0019V66.3C20.0019 72.7623 25.3704 78 32 78C38.6259 78 44.0019 72.7623 44.0019 66.3V62.4H60.0019C62.208 62.4 64 60.6528 64 58.5C64 56.3472 62.208 54.6 59.9981 54.6Z" fill="#E9E9C6"/>
</svg>
