<svg width="82" height="73" viewBox="0 0 82 73" fill="none" xmlns="http://www.w3.org/2000/svg">
<path d="M30.8382 28.8151L16.6127 49.1806C15.1061 51.3375 14.1883 53.9027 13.9622 56.5886C13.7361 59.2746 14.2106 61.9751 15.3326 64.3875C16.4546 66.7999 18.1797 68.8288 20.3145 70.2469C22.4493 71.665 24.9095 72.4161 27.4193 72.4161H54.6477C57.1575 72.4161 59.6177 71.665 61.7525 70.2469C63.8873 68.8288 65.6124 66.7999 66.7344 64.3875C67.8564 61.9751 68.3309 59.2745 68.1048 56.5886C67.8787 53.9027 66.9609 51.3375 65.4543 49.1806L51.2288 28.8151C50.0413 27.115 48.5019 25.7353 46.7323 24.785C44.9628 23.8347 43.0117 23.34 41.0335 23.34C39.0553 23.34 37.1042 23.8347 35.3347 24.785C33.5652 25.7353 32.0257 27.115 30.8382 28.8151Z" fill="#E9E9C6"/>
<path d="M10.6056 40.9311C16.2871 40.9311 20.8929 36.3253 20.8929 30.6438C20.8929 24.9623 16.2871 20.3565 10.6056 20.3565C4.92413 20.3565 0.318359 24.9623 0.318359 30.6438C0.318359 36.3253 4.92413 40.9311 10.6056 40.9311Z" fill="#E9E9C6"/>
<path d="M71.3947 40.9734C77.0762 40.9734 81.682 36.3676 81.682 30.6861C81.682 25.0046 77.0762 20.3988 71.3947 20.3988C65.7132 20.3988 61.1074 25.0046 61.1074 30.6861C61.1074 36.3676 65.7132 40.9734 71.3947 40.9734Z" fill="#E9E9C6"/>
<path d="M27.7111 20.6159C33.3926 20.6159 37.9984 16.0101 37.9984 10.3286C37.9984 4.64707 33.3926 0.0412598 27.7111 0.0412598C22.0296 0.0412598 17.4238 4.64707 17.4238 10.3286C17.4238 16.0101 22.0296 20.6159 27.7111 20.6159Z" fill="#E9E9C6"/>
<path d="M54.5646 20.6159C60.2461 20.6159 64.8519 16.0101 64.8519 10.3286C64.8519 4.64707 60.2461 0.0412598 54.5646 0.0412598C48.8831 0.0412598 44.2773 4.64707 44.2773 10.3286C44.2773 16.0101 48.8831 20.6159 54.5646 20.6159Z" fill="#E9E9C6"/>
</svg>
