<svg width="76" height="76" viewBox="0 0 76 76" fill="none" xmlns="http://www.w3.org/2000/svg">
<path d="M75.6457 46.0559H51.4922V60.8511H57.5306V75.6463H69.6073V60.8511H75.6457V46.0559Z" fill="#E9E9C6"/>
<path d="M0 46.0559V75.6459H12.0765V60.8509H24.153V46.0559H0ZM6.03825 49.7356H18.1148V57.1263H6.03825V49.7356Z" fill="#E9E9C6"/>
<path d="M49.8996 46.0559H25.7461V75.6463H49.8996V68.2486H37.8229V60.8511H49.8996V57.1523H37.8229V49.7547H49.8996V46.0559Z" fill="#E9E9C6"/>
<path d="M51.4922 6.10352e-05V44.3856H57.5304V22.1928H69.6075V44.3856H75.6457V6.10352e-05H51.4922ZM57.5304 7.39787H69.6381V14.7957H57.5304V7.39787Z" fill="#E9E9C6"/>
<path d="M60.8037 35.7959C61.8376 35.7959 62.6757 34.9403 62.6757 33.8848C62.6757 32.8292 61.8376 31.9736 60.8037 31.9736C59.7698 31.9736 58.9316 32.8292 58.9316 33.8848C58.9316 34.9403 59.7698 35.7959 60.8037 35.7959Z" fill="#E9E9C6"/>
<path d="M18.7173 17.6462L9.99318 30.1357C9.06921 31.4585 8.50634 33.0316 8.36768 34.6788C8.22902 36.326 8.52004 37.9822 9.20812 39.4616C9.8962 40.9411 10.9541 42.1854 12.2634 43.055C13.5726 43.9247 15.0813 44.3853 16.6205 44.3853H33.319C34.8581 44.3853 36.3669 43.9247 37.6761 43.055C38.9853 42.1854 40.0433 40.9411 40.7314 39.4616C41.4194 37.9822 41.7105 36.326 41.5718 34.6788C41.4331 33.0316 40.8703 31.4585 39.9463 30.1357L31.2222 17.6462C30.494 16.6035 29.5499 15.7574 28.4647 15.1746C27.3795 14.5918 26.1829 14.2884 24.9698 14.2884C23.7566 14.2884 22.56 14.5918 21.4748 15.1746C20.3896 15.7574 19.4455 16.6035 18.7173 17.6462Z" fill="#E9E9C6"/>
<path d="M6.30889 25.0765C9.79319 25.0765 12.6178 22.252 12.6178 18.7677C12.6178 15.2833 9.79319 12.4587 6.30889 12.4587C2.82459 12.4587 0 15.2833 0 18.7677C0 22.252 2.82459 25.0765 6.30889 25.0765Z" fill="#E9E9C6"/>
<path d="M43.5901 25.1025C47.0744 25.1025 49.899 22.2779 49.899 18.7936C49.899 15.3093 47.0744 12.4847 43.5901 12.4847C40.1058 12.4847 37.2812 15.3093 37.2812 18.7936C37.2812 22.2779 40.1058 25.1025 43.5901 25.1025Z" fill="#E9E9C6"/>
<path d="M16.7991 12.6178C20.2834 12.6178 23.108 9.79321 23.108 6.30891C23.108 2.82461 20.2834 0 16.7991 0C13.3148 0 10.4902 2.82461 10.4902 6.30891C10.4902 9.79321 13.3148 12.6178 16.7991 12.6178Z" fill="#E9E9C6"/>
<path d="M33.2689 12.6178C36.7532 12.6178 39.5777 9.79321 39.5777 6.30891C39.5777 2.82461 36.7532 0 33.2689 0C29.7846 0 26.96 2.82461 26.96 6.30891C26.96 9.79321 29.7846 12.6178 33.2689 12.6178Z" fill="#E9E9C6"/>
</svg>
