<svg width="76" height="76" viewBox="0 0 76 76" fill="none" xmlns="http://www.w3.org/2000/svg">
<path d="M75.6457 46.2327H51.4922V61.0279H57.5306V75.8231H69.6073V61.0279H75.6457V46.2327Z" fill="#34332D"/>
<path d="M0 46.2327V75.8228H12.0765V61.0277H24.153V46.2327H0ZM6.03825 49.9124H18.1148V57.3031H6.03825V49.9124Z" fill="#34332D"/>
<path d="M49.8996 46.2327H25.7461V75.8231H49.8996V68.4255H37.8229V61.0279H49.8996V57.3291H37.8229V49.9315H49.8996V46.2327Z" fill="#34332D"/>
<path d="M51.4922 0.176891V44.5624H57.5304V22.3697H69.6075V44.5624H75.6457V0.176891H51.4922ZM57.5304 7.57471H69.6381V14.9725H57.5304V7.57471Z" fill="#34332D"/>
<path d="M60.8037 35.9728C61.8376 35.9728 62.6757 35.1171 62.6757 34.0616C62.6757 33.0061 61.8376 32.1504 60.8037 32.1504C59.7698 32.1504 58.9316 33.0061 58.9316 34.0616C58.9316 35.1171 59.7698 35.9728 60.8037 35.9728Z" fill="#34332D"/>
<path d="M18.7173 17.823L9.99318 30.3125C9.06921 31.6353 8.50634 33.2084 8.36768 34.8556C8.22902 36.5029 8.52004 38.159 9.20812 39.6384C9.8962 41.1179 10.9541 42.3622 12.2634 43.2319C13.5726 44.1015 15.0813 44.5622 16.6205 44.5622H33.319C34.8581 44.5622 36.3669 44.1015 37.6761 43.2319C38.9853 42.3622 40.0433 41.1179 40.7314 39.6384C41.4194 38.159 41.7105 36.5028 41.5718 34.8556C41.4331 33.2084 40.8703 31.6353 39.9463 30.3125L31.2222 17.823C30.494 16.7804 29.5499 15.9342 28.4647 15.3514C27.3795 14.7686 26.1829 14.4653 24.9698 14.4653C23.7566 14.4653 22.56 14.7686 21.4748 15.3514C20.3896 15.9342 19.4455 16.7804 18.7173 17.823Z" fill="#34332D"/>
<path d="M6.30889 25.2533C9.79319 25.2533 12.6178 22.4288 12.6178 18.9445C12.6178 15.4602 9.79319 12.6355 6.30889 12.6355C2.82459 12.6355 0 15.4602 0 18.9445C0 22.4288 2.82459 25.2533 6.30889 25.2533Z" fill="#34332D"/>
<path d="M43.5901 25.2793C47.0744 25.2793 49.899 22.4547 49.899 18.9704C49.899 15.4861 47.0744 12.6615 43.5901 12.6615C40.1058 12.6615 37.2812 15.4861 37.2812 18.9704C37.2812 22.4547 40.1058 25.2793 43.5901 25.2793Z" fill="#34332D"/>
<path d="M16.7991 12.7946C20.2834 12.7946 23.108 9.97003 23.108 6.48573C23.108 3.00143 20.2834 0.176819 16.7991 0.176819C13.3148 0.176819 10.4902 3.00143 10.4902 6.48573C10.4902 9.97003 13.3148 12.7946 16.7991 12.7946Z" fill="#34332D"/>
<path d="M33.2689 12.7946C36.7532 12.7946 39.5777 9.97003 39.5777 6.48573C39.5777 3.00143 36.7532 0.176819 33.2689 0.176819C29.7846 0.176819 26.96 3.00143 26.96 6.48573C26.96 9.97003 29.7846 12.7946 33.2689 12.7946Z" fill="#34332D"/>
</svg>
