<svg width="28" height="31" viewBox="0 0 28 31" fill="none" xmlns="http://www.w3.org/2000/svg">
<path d="M13.9996 0.82C9.14319 0.82 5.17965 4.55705 5.17965 9.136V11.512H2.65965C1.26735 11.512 0.139648 12.5753 0.139648 13.888V28.144C0.139648 29.4567 1.26735 30.52 2.65965 30.52H25.3396C26.7319 30.52 27.8596 29.4567 27.8596 28.144V13.888C27.8596 12.5753 26.7319 11.512 25.3396 11.512H7.69965V9.136C7.69965 5.84088 10.5048 3.196 13.9996 3.196C16.7519 3.196 19.0684 4.85286 19.933 7.15677C19.9853 7.3073 20.069 7.44645 20.1792 7.56602C20.2894 7.68559 20.4239 7.78318 20.5747 7.85304C20.7255 7.9229 20.8895 7.96363 21.0573 7.97282C21.225 7.98201 21.393 7.95949 21.5513 7.90657C21.7097 7.85366 21.8552 7.77142 21.9794 7.66469C22.1036 7.55796 22.2038 7.4289 22.2743 7.28511C22.3448 7.14131 22.384 6.98567 22.3898 6.82735C22.3955 6.66904 22.3677 6.51123 22.3078 6.36323C21.0958 3.13343 17.8271 0.82 13.9996 0.82Z" fill="#E9E9C6"/>
</svg>
